<svg id="Calque_1" data-name="Calque 1" xmlns="http://www.w3.org/2000/svg" viewBox="0 0 54 54"><defs><style>.cls-1{fill:#f9fafa;}.cls-2{fill:#7fc816;}</style></defs><title>374-PROD-Sources</title><circle class="cls-1" cx="27" cy="27" r="27"/><path class="cls-2" d="M35.65,23.86a1.1,1.1,0,0,0,.31-.78,1.11,1.11,0,0,0-.31-.8l-1.58-1.57a1.12,1.12,0,0,0-1.57,0l-7.08,7.07-3.93-3.92a1,1,0,0,0-.77-.33,1.07,1.07,0,0,0-.79.33l-1.58,1.56a1.13,1.13,0,0,0-.31.8,1.1,1.1,0,0,0,.31.78l6.29,6.29a1.1,1.1,0,0,0,.78.32,1.13,1.13,0,0,0,.8-.32l9.43-9.43Z"/></svg>